<svg width="71" height="72" viewBox="0 0 71 72" fill="none" xmlns="http://www.w3.org/2000/svg">
<path d="M70.9868 36.4479C70.9868 16.8516 55.1018 0.965698 35.5066 0.965698C15.9114 0.965698 0.0263672 16.8516 0.0263672 36.4479C0.0263672 56.0442 15.9114 71.9302 35.5066 71.9302C55.1018 71.9302 70.9868 56.0442 70.9868 36.4479Z" fill="#4AB556"/>
<path d="M51.0398 45.5377H45.5061C44.0946 47.7358 42.2131 49.5959 40.0015 50.9877H51.0398V55.0726L59.3032 48.2636L51.0398 41.4528V45.5377Z" fill="#F4FAFF"/>
<path d="M30.7119 50.9824C38.9385 50.9265 45.5918 44.2443 45.5918 36.0035C45.5918 28.1877 39.6062 21.7769 31.9705 21.0877V16.9327L23.7978 23.7436L31.9705 30.5535V26.6061C36.5791 27.274 40.1433 31.2126 40.1433 36.0035C40.1433 41.2611 35.8654 45.5385 30.6084 45.5385H12.8101V50.9877H30.7181C30.7153 50.9859 30.7145 50.9842 30.7119 50.9824Z" fill="#F4FAFF"/>
<path d="M23.9566 42.8143C22.1829 41.0819 21.0734 38.6726 21.0734 36.0035C21.0734 32.8376 22.6415 30.0469 25.024 28.3109L20.7436 24.745C17.6122 27.4913 15.625 31.5114 15.625 36.0035C15.625 38.4651 16.257 40.7661 17.3086 42.8143H23.9566Z" fill="#F4FAFF"/>
</svg>
