<svg width="71" height="72" viewBox="0 0 71 72" fill="none" xmlns="http://www.w3.org/2000/svg">
<path d="M70.9868 35.948C70.9868 16.3517 55.1018 0.465759 35.5066 0.465759C15.9114 0.465759 0.0263672 16.3517 0.0263672 35.948C0.0263672 55.5443 15.9114 71.4302 35.5066 71.4302C55.1018 71.4302 70.9868 55.5443 70.9868 35.948Z" fill="#4AB556"/>
<path d="M55.3824 45.4668H14.2735C13.567 45.4668 12.9941 46.04 12.9941 46.7461C12.9941 48.8662 14.7124 50.5844 16.8321 50.5844H52.8242C54.9442 50.5844 56.6623 48.8662 56.6623 46.7461C56.6623 46.04 56.0893 45.4668 55.3824 45.4668Z" fill="#F4FAFF"/>
<path d="M25.873 23.5182V33.736C27.2591 33.6037 28.6865 33.6556 30.0209 33.9909C31.2965 34.3094 32.5533 34.9028 33.549 35.4602V25.6647C32.7269 25.1162 31.0379 24.0879 29.4012 23.6781C28.0931 23.3508 26.7475 23.4132 25.873 23.5182Z" fill="#F4FAFF"/>
<path d="M40.2553 23.6782C38.6099 24.0905 36.9271 25.1162 36.1074 25.6635V35.4601C37.1032 34.9029 38.36 34.3094 39.6356 33.9907C41.1697 33.6034 42.6902 33.6297 43.7835 33.7359V23.5168C42.9114 23.4145 41.5696 23.3508 40.2553 23.6782Z" fill="#F4FAFF"/>
<path d="M54.1033 18.5992C54.1033 17.8921 53.5312 17.3198 52.8243 17.3198H16.8321C16.1249 17.3198 15.5527 17.8921 15.5527 18.5992V42.908H54.1033V18.5992ZM46.3421 35.2315C46.3421 36.0479 45.5742 36.6721 44.7554 36.4735C44.7328 36.4673 42.4528 35.9263 40.2552 36.4722C37.9738 37.0432 35.6188 38.7962 35.5951 38.8136C35.3605 38.9909 35.0822 39.0697 34.828 39.0697C34.5629 39.0697 34.2903 38.9861 34.0609 38.8149C34.0372 38.7974 31.6696 37.0395 29.4008 36.4722C27.2106 35.9249 24.9244 36.466 24.9032 36.4722C24.0946 36.6731 23.314 36.0622 23.314 35.2315V22.4374C23.314 21.8502 23.7139 21.3392 24.2835 21.1968C24.4022 21.1667 27.1871 20.4846 30.0206 21.1968C31.9533 21.6793 33.8206 22.783 34.8281 23.4448C35.8355 22.783 37.7029 21.6793 39.6356 21.1968C42.4703 20.4821 45.2552 21.1667 45.3726 21.1968C45.9423 21.3392 46.3421 21.8502 46.3421 22.4374V35.2315Z" fill="#F4FAFF"/>
</svg>
