<svg width="72" height="72" viewBox="0 0 72 72" fill="none" xmlns="http://www.w3.org/2000/svg">
<path d="M71.6497 35.948C71.6497 16.3517 55.7646 0.465759 36.1694 0.465759C16.5742 0.465759 0.689209 16.3517 0.689209 35.948C0.689209 55.5443 16.5742 71.4302 36.1694 71.4302C55.7646 71.4302 71.6497 55.5443 71.6497 35.948Z" fill="#4AB556"/>
<mask id="mask0_627_810" style="mask-type:luminance" maskUnits="userSpaceOnUse" x="15" y="13" width="42" height="42">
<path d="M56.2334 13.7715H15.4312V54.5761H56.2334V13.7715Z" fill="white"/>
</mask>
<g mask="url(#mask0_627_810)">
<path d="M28.66 18.6331C25.3648 18.6331 22.6035 21.3145 22.6035 24.6103C22.6035 27.906 25.3648 30.5875 28.66 30.5875C31.9552 30.5875 34.7165 27.906 34.7165 24.6103C34.7165 21.3145 31.9552 18.6331 28.66 18.6331Z" fill="#F4FAFF"/>
<path d="M47.8662 32.9783C44.5701 32.9783 41.8887 35.6599 41.8887 38.9556C41.8887 42.2513 44.5701 44.9328 47.8662 44.9328C51.1614 44.9328 53.8428 42.2513 53.8428 38.9556C53.8428 35.6599 51.1614 32.9783 47.8662 32.9783Z" fill="#F4FAFF"/>
<path d="M53.7037 44.9329C52.194 46.4072 50.1371 47.3236 47.8663 47.3236C45.5947 47.3236 43.5377 46.4072 42.028 44.9329C40.4722 46.4534 39.4983 48.5672 39.4983 50.9099V53.3804C39.4983 54.0412 40.0332 54.5761 40.694 54.5761H55.0377C55.6985 54.5761 56.2334 54.0412 56.2334 53.3804V50.9099C56.2334 48.5672 55.2595 46.4534 53.7037 44.9329Z" fill="#F4FAFF"/>
<path d="M34.5771 30.5875C33.0683 32.0618 30.9315 32.9783 28.6599 32.9783C26.3891 32.9783 24.2523 32.0618 22.7426 30.5875C21.1859 32.1081 20.2129 34.2223 20.2129 36.5647V37.7602H37.1077V36.5647C37.1077 34.2223 36.1338 32.1081 34.5771 30.5875Z" fill="#F4FAFF"/>
<path d="M52.6474 13.7715H40.6941C38.7161 13.7715 37.1079 15.46 37.1079 17.4376V22.2193C37.1079 23.7779 38.1067 25.1076 39.4984 25.6014V29.3921C39.4984 29.8753 39.7894 30.3119 40.2364 30.4964C40.6773 30.6803 41.1935 30.5822 41.5385 30.2373L45.97 25.8057H52.6474C54.6254 25.8057 56.2335 24.1969 56.2335 22.2193V17.4376C56.2335 15.46 54.6254 13.7715 52.6474 13.7715ZM50.2569 21.0239H43.0846C42.4238 21.0239 41.8889 20.4892 41.8889 19.8285C41.8889 19.1677 42.4238 18.6331 43.0846 18.6331H50.2569C50.9177 18.6331 51.4517 19.1677 51.4517 19.8285C51.4517 20.4892 50.9177 21.0239 50.2569 21.0239Z" fill="#F4FAFF"/>
<path d="M39.6189 40.1511H17.8216C16.5018 40.1511 15.4312 41.2215 15.4312 42.5419C15.4312 43.8622 16.5018 44.9328 17.8216 44.9328H38.9359C39.3466 44.324 39.8176 43.7491 40.3578 43.2226L40.5858 42.9991C40.1006 42.1296 39.767 41.1751 39.6189 40.1511Z" fill="#F4FAFF"/>
<path d="M37.1079 50.9099C37.1079 49.6636 37.3608 48.4643 37.767 47.3235H17.8218V53.3804C17.8218 54.0412 18.3575 54.5761 19.0175 54.5761H37.3279C37.194 54.2 37.1079 53.8017 37.1079 53.3804V50.9099Z" fill="#F4FAFF"/>
</g>
</svg>
