<svg width="36" height="36" viewBox="0 0 36 36" fill="none" xmlns="http://www.w3.org/2000/svg">
<path d="M21.3622 25.8844C21.7107 26.2444 22.2346 25.6824 21.8841 25.3097L14.9088 17.9992L21.8842 10.6887C22.032 10.5339 22.0349 10.2797 21.8907 10.1211C21.7463 9.96219 21.5099 9.95949 21.3622 10.1141L14.1128 17.7119C14.0405 17.7875 14 17.891 14 17.9992C14 18.1074 14.0405 18.2109 14.1128 18.2865L21.3622 25.8844Z" fill="#A5A9AC"/>
<path d="M17.8379 2C9.10486 2 2 9.06531 2 17.75C2.86874 38.6441 32.8103 38.638 33.6758 17.7499C33.6758 9.06531 26.5709 2 17.8379 2ZM17.8379 32.375C9.72504 32.375 3.125 25.8142 3.125 17.75C3.93195 -1.65167 31.7468 -1.64598 32.5508 17.7501C32.5508 25.8142 25.9507 32.375 17.8379 32.375Z" fill="#A5A9AC"/>
</svg>
