<svg width="72" height="72" viewBox="0 0 72 72" fill="none" xmlns="http://www.w3.org/2000/svg">
<path d="M71.6477 36.4479C71.6477 16.8516 55.7627 0.965698 36.1675 0.965698C16.5723 0.965698 0.687256 16.8516 0.687256 36.4479C0.687256 56.0442 16.5723 71.9302 36.1675 71.9302C55.7627 71.9302 71.6477 56.0442 71.6477 36.4479Z" fill="#4AB556"/>
<path d="M44.5888 17.7314C44.3572 16.1417 42.9711 14.9427 41.3646 14.9427H30.6354C29.0288 14.9427 27.6427 16.1417 27.4112 17.7315L26.8452 21.6179H29.5345L30.0446 18.115C30.087 17.8236 30.341 17.604 30.6354 17.604H41.3646C41.6589 17.604 41.913 17.8237 41.9553 18.115L42.4654 21.6178H45.1548L44.5888 17.7314Z" fill="#F4FAFF"/>
<path d="M53.2261 40.999H41.7054V42.5523C41.7054 43.0438 41.4345 43.4952 41.001 43.7264L36.6262 46.0594C36.4305 46.1638 36.2154 46.216 36 46.216C35.7848 46.216 35.5695 46.1639 35.3738 46.0594L30.999 43.7264C30.5654 43.4952 30.2946 43.0438 30.2946 42.5523V40.999H18.7739C16.9579 40.999 15.2926 40.3437 14 39.2582V53.4241C14 54.3246 14.7326 55.0573 15.6332 55.0573H56.3668C57.2673 55.0573 58 54.3247 58 53.4241V39.2582C56.7073 40.3437 55.042 40.999 53.2261 40.999Z" fill="#F4FAFF"/>
<path d="M56.3668 24.2791H15.6332C14.7326 24.2791 14 25.0118 14 25.9122V33.5638C14 36.1962 16.1416 38.3377 18.7739 38.3377H30.2946V36.0069C30.2946 35.272 30.8904 34.6762 31.6253 34.6762H40.3748C41.1097 34.6762 41.7055 35.272 41.7055 36.0069V38.3377H53.2261C55.8584 38.3377 58 36.1962 58 33.5638V25.9122C58 25.0118 57.2674 24.2791 56.3668 24.2791Z" fill="#F4FAFF"/>
<path d="M32.9558 37.3376V41.7541L35.9999 43.3775L39.044 41.7541V37.3376H32.9558Z" fill="#F4FAFF"/>
</svg>
