<svg width="183" height="28" viewBox="0 0 183 28" fill="none" xmlns="http://www.w3.org/2000/svg">
<g clip-path="url(#clip0_646_2517)">
<mask id="mask0_646_2517" style="mask-type:luminance" maskUnits="userSpaceOnUse" x="0" y="0" width="183" height="28">
<path d="M182.84 0H0V27.9389H182.84V0Z" fill="white"/>
</mask>
<g mask="url(#mask0_646_2517)">
<path d="M106.171 0H104.099C103.563 0 103.129 0.428504 103.129 0.957091V20.9338C103.129 21.4624 103.563 21.8909 104.099 21.8909H106.171C106.706 21.8909 107.14 21.4624 107.14 20.9338V0.957091C107.14 0.428504 106.706 0 106.171 0Z" fill="#F4FAFF"/>
<path d="M155.762 12.5389V20.6792C155.762 21.3258 155.231 21.8501 154.576 21.8501H152.968C152.323 21.8501 151.803 21.336 151.803 20.6996V12.5287C151.803 11.4596 150.926 10.5941 149.844 10.5941H140.4C139.286 10.5941 138.379 11.4851 138.379 12.5898V20.6894C138.379 21.3309 137.853 21.8451 137.209 21.8451H135.482C134.9 21.8451 134.425 21.3767 134.425 20.8014V12.4981C134.425 9.28578 137.059 6.68433 140.312 6.68433H149.844C153.112 6.68433 155.767 9.30105 155.767 12.5338L155.762 12.5389Z" fill="#F4FAFF"/>
<path d="M39.7189 6.68945C37.4456 6.68945 35.6001 8.512 35.6001 10.7571V21.8909H35.6156V27.3382C35.6156 27.6691 35.8888 27.9389 36.2238 27.9389H39.0075C39.3426 27.9389 39.6158 27.6691 39.6158 27.3382V23.3876C39.6158 22.5578 40.2962 21.8909 41.1313 21.8909H52.6526C54.9207 21.8909 56.761 20.0735 56.761 17.8335V10.7571C56.761 8.512 54.9156 6.68945 52.6422 6.68945H39.724H39.7189ZM52.735 16.9476C52.735 17.0138 52.735 17.08 52.7196 17.1513C52.6216 17.9098 51.9669 18.4953 51.168 18.4953H41.1829C40.3426 18.4953 39.6519 17.8131 39.6519 16.9833V11.5462C39.6519 10.8131 40.1828 10.2022 40.8891 10.0698C40.9818 10.0495 41.0798 10.0444 41.1726 10.0444H51.1886C51.2865 10.0444 51.3845 10.0545 51.4773 10.0698C52.1268 10.192 52.6319 10.7164 52.7144 11.368C52.7247 11.4342 52.7299 11.5004 52.7299 11.5665V16.9476H52.735Z" fill="#F4FAFF"/>
<path d="M22.0837 0.768845V4.44957C22.0837 4.86194 21.7435 5.20303 21.3208 5.20303H10.4181C7.54166 5.20303 5.21163 7.50412 5.21163 10.3448V21.107C5.21163 21.5245 4.87141 21.8605 4.4487 21.8605H0.76293C0.340225 21.8605 0 21.5245 0 21.107V10.3296C0 4.65321 4.66006 0.0510254 10.4078 0.0510254H21.3517C21.7538 0.0510254 22.0786 0.371753 22.0786 0.768845H22.0837Z" fill="#F4FAFF"/>
<path d="M5.24268 26.3199V22.6392C5.24268 22.2268 5.5829 21.8857 6.00561 21.8857H16.9083C19.7847 21.8857 22.1148 19.5846 22.1148 16.7439V5.98173C22.1148 5.56427 22.455 5.22827 22.8777 5.22827H26.5635C26.9862 5.22827 27.3264 5.56427 27.3264 5.98173V16.7592C27.3264 22.4355 22.6663 27.0377 16.9186 27.0377H5.96952C5.56744 27.0377 5.24268 26.717 5.24268 26.3199Z" fill="#F4FAFF"/>
<path d="M75.3601 7.26982V10.1462C75.3601 10.4516 75.1075 10.696 74.8034 10.696H65.9988C64.9111 10.696 64.0296 11.5665 64.0296 12.6407V21.2902C64.0296 21.6211 63.7615 21.8858 63.4265 21.8858H60.5809C60.2459 21.8858 59.9727 21.616 59.9727 21.2851V12.5695C59.9727 9.32145 62.6378 6.68945 65.9266 6.68945H74.7776C75.0972 6.68945 75.3601 6.94909 75.3601 7.26473V7.26982Z" fill="#F4FAFF"/>
<path d="M126.878 6.69971H111.506C110.877 6.69971 110.362 7.20371 110.362 7.82989V9.4488C110.362 10.0953 110.898 10.6197 111.547 10.6197H126.208C126.754 10.6197 127.198 11.0575 127.198 11.5972V11.8924C127.198 12.5033 126.693 13.0023 126.074 13.0023H114.238C112.099 13.0023 110.367 14.7128 110.367 16.8255V18.0626C110.367 20.1753 112.104 21.8859 114.238 21.8859H129.126C130.25 21.8859 131.162 20.9848 131.162 19.875V10.9303C131.162 8.59353 129.244 6.69971 126.878 6.69971ZM125.486 19.3048H116.321C115.238 19.3048 114.362 18.4393 114.362 17.3703C114.362 16.3012 115.238 15.4357 116.321 15.4357H125.486C126.409 15.4357 127.157 16.1739 127.157 17.0852V17.6604C127.157 18.5717 126.409 19.3099 125.486 19.3099V19.3048Z" fill="#F4FAFF"/>
<path d="M174.623 14.3563L182.737 21.1985C182.949 21.3767 182.82 21.7178 182.541 21.7178H177.67C177.278 21.7178 176.902 21.5752 176.608 21.3207L171.561 16.9781C171.561 16.9781 171.541 16.9731 171.53 16.9781L166.427 21.3665C166.164 21.5905 165.829 21.7178 165.479 21.7178H160.123C159.989 21.7178 159.932 21.5549 160.03 21.4734L168.463 14.3614V14.3258L160.117 7.1476C159.989 7.0356 160.066 6.82178 160.241 6.82178H165.37C165.618 6.82178 165.86 6.90832 166.051 7.07123L171.53 11.7294C171.53 11.7294 171.551 11.7345 171.561 11.7294L176.974 7.12723C177.206 6.92869 177.5 6.82178 177.804 6.82178H182.268C182.644 6.82178 182.815 7.27996 182.536 7.52432L174.623 14.3258V14.3614V14.3563Z" fill="#F4FAFF"/>
<path d="M78.5767 10.864V17.6094C78.5767 19.9767 80.5201 21.9011 82.9223 21.9011H95.6601C97.918 21.9011 99.7531 20.0938 99.7531 17.8589V10.8894C99.7531 8.56796 97.8458 6.68433 95.4951 6.68433H82.814C80.4737 6.68433 78.5767 8.55778 78.5767 10.8691V10.864ZM94.1136 18.5003H84.077C83.278 18.5003 82.6284 17.8589 82.6284 17.0698V11.5563C82.6284 10.7265 83.3089 10.0494 84.1543 10.0494H94.1806C95.026 10.0494 95.7116 10.7265 95.7116 11.5614V16.9221C95.7116 17.7927 94.9951 18.5003 94.1136 18.5003Z" fill="#F4FAFF"/>
</g>
</g>
<defs>
<clipPath id="clip0_646_2517">
<rect width="183" height="28" fill="white"/>
</clipPath>
</defs>
</svg>
