<svg width="36" height="36" viewBox="0 0 36 36" fill="none" xmlns="http://www.w3.org/2000/svg">
<path d="M14.6378 10.1156C14.2893 9.75564 13.7654 10.3176 14.1159 10.6903L21.0912 18.0008L14.1158 25.3113C13.968 25.4661 13.9651 25.7203 14.1093 25.8789C14.2537 26.0378 14.4901 26.0405 14.6378 25.8859L21.8872 18.2881C21.9595 18.2125 22 18.109 22 18.0008C22 17.8926 21.9595 17.7891 21.8872 17.7135L14.6378 10.1156Z" fill="#A5A9AC"/>
<path d="M17.8379 2C9.10486 2 2 9.06531 2 17.75C2.86874 38.6441 32.8103 38.638 33.6758 17.7499C33.6758 9.06531 26.5709 2 17.8379 2ZM17.8379 32.375C9.72504 32.375 3.125 25.8142 3.125 17.75C3.93195 -1.65167 31.7468 -1.64598 32.5508 17.7501C32.5508 25.8142 25.9507 32.375 17.8379 32.375Z" fill="#A5A9AC"/>
</svg>
